<svg xmlns="http://www.w3.org/2000/svg" viewBox="0 0 1704 968" fill="#ffffff"><path fill-rule="evenodd" d="M950.0 286.0 L715.0 286.6 L712.3 285.0 L720.5 262.0 L830.0 12.6 L834.6 15.0 L851.0 52.0 L943.0 264.0 L950.4 282.0 L950.0 286.0Z M16.0 287.0 L12.4 286.0 L11.5 282.0 L12.5 23.0 L97.0 22.2 L126.0 24.3 L157.0 32.5 L173.0 40.5 L190.1 52.0 L207.0 69.0 L222.6 93.0 L230.9 116.0 L235.1 137.0 L236.2 164.0 L234.4 186.0 L227.0 210.1 L210.5 238.0 L194.2 255.0 L178.0 266.8 L163.0 274.6 L140.0 282.3 L109.0 286.8 L16.0 287.0Z M379.0 289.2 L347.0 286.3 L334.0 282.5 L318.2 275.0 L301.0 263.0 L292.9 255.0 L276.0 229.0 L271.9 218.0 L268.2 193.0 L268.1 27.0 L270.0 22.7 L316.0 22.0 L319.6 24.0 L321.0 195.0 L328.2 213.0 L341.0 227.0 L355.0 235.0 L376.0 238.9 L397.0 235.0 L411.0 226.8 L423.2 214.0 L430.7 198.0 L432.0 23.7 L435.0 22.0 L479.0 22.2 L483.0 24.7 L483.2 189.0 L482.5 202.0 L475.1 230.0 L459.0 254.1 L446.0 266.5 L434.0 274.5 L404.0 286.3 L379.0 289.2Z M631.0 286.0 L535.0 286.4 L532.1 284.0 L531.7 27.0 L534.0 22.5 L616.0 22.1 L641.0 24.6 L664.0 31.9 L677.0 40.1 L686.7 49.0 L695.0 62.0 L698.8 76.0 L699.5 90.0 L698.6 103.0 L694.9 116.0 L687.0 130.1 L669.9 146.0 L694.0 164.2 L707.0 182.0 L711.5 200.0 L710.1 230.0 L707.0 240.1 L699.0 254.0 L682.0 270.5 L655.0 282.1 L631.0 286.0Z M1025.0 286.4 L979.0 286.4 L975.9 283.0 L975.7 27.0 L976.3 24.0 L979.0 22.2 L1024.0 22.0 L1027.7 25.0 L1027.8 280.0 L1025.0 286.4Z M113.8 235.0 L131.2 231.0 L149.0 222.8 L162.0 212.3 L171.0 201.1 L178.7 185.0 L182.7 166.0 L182.8 145.0 L179.1 124.0 L170.8 106.0 L163.0 95.9 L143.0 80.3 L132.9 76.0 L114.0 71.7 L66.0 71.6 L63.6 75.0 L63.9 234.0 L67.0 235.8 L113.8 235.0Z M619.6 130.0 L631.0 126.8 L638.0 121.0 L643.0 112.2 L645.1 96.0 L642.3 86.0 L638.0 80.2 L632.0 76.1 L619.0 72.4 L585.0 72.5 L583.5 77.0 L584.3 129.0 L587.0 130.6 L619.6 130.0Z M626.4 237.0 L646.0 231.1 L655.0 222.0 L657.9 206.0 L654.3 194.0 L642.0 184.5 L627.0 180.7 L585.0 180.0 L583.4 184.0 L583.4 232.0 L584.8 237.0 L626.4 237.0Z M715.0 621.0 L712.4 620.0 L712.0 616.4 L728.5 578.0 L828.4 349.0 L833.0 347.6 L950.7 619.0 L948.0 621.0 L715.0 621.0Z M183.0 623.1 L149.0 623.0 L126.3 619.0 L112.0 614.2 L89.0 603.0 L68.2 586.0 L48.7 560.0 L36.9 532.0 L32.2 511.0 L31.7 477.0 L36.3 448.0 L44.4 425.0 L56.1 405.0 L75.0 384.1 L91.0 372.1 L106.0 364.0 L133.0 355.9 L168.0 354.2 L191.0 356.5 L217.0 364.5 L234.0 372.5 L239.5 377.0 L220.9 423.0 L216.0 423.2 L199.0 412.3 L175.0 404.7 L156.0 403.9 L138.0 408.0 L121.0 416.5 L104.0 432.8 L96.4 444.0 L88.3 463.0 L85.4 492.0 L88.6 515.0 L93.0 528.7 L100.5 542.0 L117.0 559.0 L130.8 567.0 L142.0 570.9 L174.0 572.8 L192.0 570.2 L210.0 562.5 L221.0 555.0 L226.0 555.8 L245.0 598.6 L234.0 606.6 L217.0 614.7 L183.0 623.1Z M519.0 621.0 L516.5 620.0 L515.4 616.0 L516.4 357.0 L694.0 356.4 L695.8 360.0 L695.9 403.0 L694.0 407.1 L568.0 408.3 L567.3 460.0 L569.0 463.3 L677.0 463.5 L681.1 467.0 L680.8 509.0 L678.0 513.3 L569.0 513.8 L567.4 519.0 L567.4 567.0 L568.0 570.1 L571.0 571.4 L699.0 571.6 L701.0 575.0 L700.1 619.0 L696.0 620.9 L519.0 621.0Z M1201.0 620.3 L1155.0 621.0 L1150.7 617.0 L1150.8 361.0 L1152.0 357.0 L1154.0 356.1 L1199.0 356.3 L1202.6 359.0 L1202.9 616.0 L1201.0 620.3Z M1355.0 629.4 L1352.0 628.3 L1244.4 382.0 L1235.6 358.0 L1239.0 356.0 L1292.0 356.1 L1297.0 358.1 L1340.0 465.0 L1357.0 502.6 L1359.0 501.6 L1362.4 493.0 L1413.0 358.1 L1419.0 356.1 L1473.0 356.3 L1474.3 359.0 L1470.5 369.0 L1359.0 624.0 L1355.0 629.4Z M1690.0 620.5 L1511.0 621.0 L1507.4 619.0 L1506.8 364.0 L1508.0 357.0 L1686.3 357.0 L1687.2 403.0 L1685.1 407.0 L1562.0 407.2 L1559.0 409.0 L1558.5 460.0 L1560.1 463.0 L1669.0 463.5 L1672.0 467.0 L1671.8 509.0 L1669.0 513.7 L1560.6 514.0 L1558.7 519.0 L1558.8 567.0 L1560.0 570.5 L1563.0 571.4 L1690.0 571.4 L1692.0 575.0 L1691.9 616.0 L1690.0 620.5Z M332.0 621.0 L287.0 621.0 L283.6 618.0 L283.8 359.0 L287.0 356.4 L367.0 356.1 L399.0 360.0 L423.0 368.3 L441.0 381.0 L454.5 397.0 L463.0 415.9 L466.9 436.0 L467.2 448.0 L462.4 478.0 L458.5 489.0 L450.9 502.0 L426.5 526.0 L483.2 615.0 L484.2 619.0 L481.0 620.9 L431.0 620.9 L425.0 619.2 L370.0 537.9 L339.0 536.4 L336.3 538.0 L335.5 542.0 L335.6 617.0 L332.0 621.0Z M1049.0 620.3 L1003.0 620.9 L998.4 618.0 L998.4 410.0 L994.0 407.2 L937.1 406.0 L936.2 361.0 L938.0 356.7 L1107.0 356.2 L1114.3 358.0 L1114.0 406.3 L1054.0 407.2 L1050.7 410.0 L1050.9 616.0 L1049.0 620.3Z M340.3 487.0 L383.0 486.0 L398.0 479.1 L406.1 471.0 L411.5 459.0 L412.7 444.0 L411.0 431.8 L402.0 416.2 L387.0 408.0 L339.0 406.7 L336.0 408.0 L335.5 483.0 L337.0 486.5 L340.3 487.0Z M950.0 955.3 L714.0 955.6 L711.5 954.0 L816.5 710.0 L830.0 682.1 L833.3 683.0 L838.6 693.0 L932.6 912.0 L951.0 951.3 L950.0 955.3Z M603.0 955.1 L557.0 955.5 L552.6 953.0 L552.6 694.0 L557.0 691.5 L637.0 691.2 L655.0 692.1 L673.6 696.0 L693.0 704.5 L710.0 716.3 L726.5 739.0 L731.0 750.4 L735.2 778.0 L734.7 791.0 L730.4 813.0 L722.6 831.0 L715.2 842.0 L702.0 854.8 L689.1 863.0 L662.0 871.0 L605.4 873.0 L605.1 952.0 L603.0 955.1Z M1176.0 955.2 L1118.0 954.3 L1066.5 877.0 L1060.0 871.5 L1031.0 871.5 L1028.0 873.0 L1027.0 954.8 L979.0 955.5 L976.0 954.0 L975.6 695.0 L976.9 692.0 L1060.0 691.1 L1082.0 692.6 L1097.0 696.0 L1117.1 704.0 L1130.0 712.5 L1142.1 725.0 L1151.0 739.0 L1158.0 760.2 L1159.5 777.0 L1158.4 798.0 L1154.6 814.0 L1146.7 831.0 L1139.0 842.2 L1120.5 858.0 L1119.1 862.0 L1177.3 952.0 L1176.0 955.2Z M1418.0 955.5 L1355.0 954.5 L1275.5 845.0 L1273.0 843.8 L1260.1 858.0 L1260.0 954.0 L1257.0 955.5 L1208.0 954.5 L1208.2 692.0 L1256.0 691.2 L1260.0 693.0 L1259.5 792.0 L1261.0 795.4 L1353.0 691.7 L1418.1 692.0 L1417.7 695.0 L1312.2 810.0 L1419.3 952.0 L1418.0 955.5Z M642.6 821.0 L660.0 818.5 L670.6 811.0 L678.5 801.0 L683.2 781.0 L679.0 761.9 L669.0 749.0 L660.0 744.0 L640.0 741.4 L608.0 742.0 L605.4 747.0 L606.0 819.0 L611.0 821.7 L642.6 821.0Z M1075.4 820.0 L1082.0 818.6 L1094.1 811.0 L1102.6 798.0 L1105.6 782.0 L1103.3 765.0 L1099.1 757.0 L1091.0 748.4 L1083.0 743.6 L1070.0 741.5 L1030.0 741.7 L1027.7 747.0 L1028.3 819.0 L1032.0 820.8 L1075.4 820.0Z"/></svg>